<svg width="100" height="101" viewBox="0 0 100 101" fill="none" xmlns="http://www.w3.org/2000/svg">
<path d="M75 46.3333C81.2083 46.3333 86.9583 48.2916 91.6667 51.5833V33.8333C91.6667 29.2083 87.9583 25.5 83.3333 25.5H66.6667V17.1666C66.6667 12.5416 62.9583 8.83331 58.3333 8.83331H41.6667C37.0417 8.83331 33.3333 12.5416 33.3333 17.1666V25.5H16.6667C12.0417 25.5 8.375 29.2083 8.375 33.8333L8.33334 79.6666C8.33334 84.2916 12.0417 88 16.6667 88H48.6667C46.5527 83.5563 45.5982 78.6497 45.8923 73.7376C46.1863 68.8255 47.7193 64.0678 50.3482 59.9081C52.9772 55.7483 56.6166 52.3219 60.9272 49.9482C65.2377 47.5746 70.0791 46.331 75 46.3333ZM41.6667 17.1666H58.3333V25.5H41.6667V17.1666Z" fill="#EEEEEE"/>
<path d="M75 54.6667C63.5 54.6667 54.1667 64 54.1667 75.5C54.1667 87 63.5 96.3334 75 96.3334C86.5 96.3334 95.8333 87 95.8333 75.5C95.8333 64 86.5 54.6667 75 54.6667ZM81.875 85.2917L72.9167 76.3334V63H77.0833V74.625L84.7917 82.3334L81.875 85.2917Z" fill="#EEEEEE"/>
</svg>
