<svg width="50" height="40" viewBox="0 0 50 40" fill="none" xmlns="http://www.w3.org/2000/svg">
<path d="M48.2143 0.3125H1.78571C0.797991 0.3125 0 1.1123 0 2.10227V37.8977C0 38.8877 0.797991 39.6875 1.78571 39.6875H48.2143C49.202 39.6875 50 38.8877 50 37.8977V2.10227C50 1.1123 49.202 0.3125 48.2143 0.3125ZM45.9821 6.50959V35.6605H4.01786V6.50959L2.47768 5.30708L4.67076 2.4826L7.05915 4.34508H42.9464L45.3348 2.4826L47.5279 5.30708L45.9821 6.50959ZM42.9464 4.33949L25 18.3221L7.05357 4.33949L4.66518 2.47701L2.4721 5.30149L4.01228 6.504L23.0748 21.3591C23.623 21.786 24.2974 22.0177 24.9916 22.0177C25.6858 22.0177 26.3603 21.786 26.9085 21.3591L45.9821 6.50959L47.5223 5.30708L45.3292 2.4826L42.9464 4.33949Z" fill="white"/>
</svg>
