<svg width="47" height="51" viewBox="0 0 47 51" fill="none" xmlns="http://www.w3.org/2000/svg">
<path d="M2.01949 8.23026L8.18271 1.58109C8.93502 0.768693 9.94197 0.3125 11.0068 0.3125C12.0716 0.3125 13.0786 0.762444 13.8309 1.58109L20.4686 8.73645C21.221 9.54885 21.6434 10.6425 21.6434 11.7923C21.6434 12.9484 21.2267 14.0295 20.4686 14.8482L15.2834 20.4537C16.4647 23.4258 18.1619 26.1261 20.2835 28.409C22.4073 30.715 24.89 32.5335 27.6446 33.8208L32.8298 28.2153C33.5821 27.4029 34.5891 26.9467 35.6539 26.9467C36.1791 26.9446 36.6994 27.0557 37.1844 27.2735C37.6693 27.4914 38.1091 27.8115 38.478 28.2153L45.1215 35.3706C45.8738 36.183 46.2963 37.2766 46.2963 38.4265C46.2963 39.5826 45.8796 40.6637 45.1215 41.4824L38.9641 48.1315C37.6794 49.5189 35.9085 50.3125 34.0914 50.3125C33.7152 50.3125 33.3506 50.2813 32.9803 50.2125C25.3182 48.8502 17.714 44.4445 11.5739 37.8203C5.43964 31.1836 1.36554 22.9722 0.092392 14.692C-0.272194 12.3422 0.456978 9.9238 2.01949 8.23026ZM4.19542 13.9483C5.3239 21.3161 8.9929 28.6652 14.5195 34.6332C20.0462 40.6012 26.846 44.5632 33.6689 45.7818C34.5254 45.938 35.405 45.6256 36.03 44.9569L42.0775 38.4265L35.6655 31.4961L28.7326 38.9952L28.6805 39.0514L27.4305 38.5515C23.6404 37.0467 20.1986 34.67 17.3437 31.586C14.4888 28.502 12.289 24.7845 10.8968 20.6912L10.4339 19.3414L17.4246 11.7986L11.0126 4.86818L4.9651 11.3986C4.3401 12.0735 4.05074 13.0234 4.19542 13.9483Z" fill="white"/>
</svg>
